<?xml version="1.0" encoding="utf-8"?>
<!-- Generator: Adobe Illustrator 23.0.1, SVG Export Plug-In . SVG Version: 6.00 Build 0)  -->
<svg version="1.1" xmlns="http://www.w3.org/2000/svg" xmlns:xlink="http://www.w3.org/1999/xlink" x="0px" y="0px"
	 viewBox="0 0 24 24" style="enable-background:new 0 0 24 24;" xml:space="preserve">
<style type="text/css">
	.st0{fill:#4285F4;}
	.st1{fill:#E01E5A;}
	.st2{fill:#2EB67D;}
	.st3{fill:#ECB22E;}
	.st4{fill:none;stroke:#000000;stroke-width:0.3;}
</style>
<g id="Back_Side">
	<g id="Background_1_">
	</g>
	<g id="Graphics">
	</g>
	<g id="Text_1_">
		<g id="_x5B_YOUR_NAME_HERE_x5D_">
			<g id="Yours_x2C__John">
				<text transform="matrix(1 0 0 1 514.8018 292.34)"><tspan x="0" y="0" style="fill:#645958; font-family:'Merriweather-Italic'; font-size:15px;">Yours, </tspan><tspan x="0" y="18" style="fill:#645958; font-family:'Merriweather-Italic'; font-size:15px;">John</tspan></text>
			</g>
		</g>
	</g>
</g>
<g id="Front_Side">
	<g id="Background">
	</g>
	<g id="Graphics_1_">
	</g>
	<g id="Text">
		<g>
			<path class="st0" d="M8.67,11.08h-7.3c0,0-1.67-4.21,1.42-7.18c1.12-1.09,4.12-3.27,8.75-0.7v6.15c0,0-1.23-1.29-2.56-1.12
				C8.47,8.31,7.62,8.7,7.72,9.72C7.72,10.05,7.88,10.64,8.67,11.08z"/>
			<path class="st1" d="M1.89,12.05h9.45c0,0-0.33,1.53-3.06,1.95c0,0.51,0.02,1.01,0.02,1.01s2.41-0.32,3.26-1.48
				c0,1.09,0,8.47,0,8.47S3.4,15.44,1.89,12.05z"/>
			<path class="st0" d="M9.15,10.17C8.97,9.92,8.74,9.45,8.9,9.26c0.18-0.22,0.8,0.01,1.11,0.18c0.6,0.32,0.94,0.87,1.13,1.3
				c0.05,0.12-0.04,0.25-0.16,0.24C10.5,10.95,9.63,10.82,9.15,10.17z"/>
			<g>
				<g>
					<path class="st2" d="M15.33,11.08h7.3c0,0,1.67-4.21-1.42-7.18c-1.12-1.09-4.12-3.27-8.75-0.7v6.15c0,0,1.23-1.29,2.56-1.12
						c0.51,0.08,1.36,0.47,1.27,1.48C16.28,10.05,16.12,10.64,15.33,11.08z"/>
					<path class="st3" d="M22.11,12.05h-9.45c0,0,0.33,1.53,3.06,1.95c0,0.51-0.02,1.01-0.02,1.01s-2.41-0.32-3.26-1.48
						c0,1.09,0,8.47,0,8.47S20.6,15.44,22.11,12.05z"/>
				</g>
				<path class="st2" d="M14.85,10.17c0.18-0.25,0.41-0.72,0.25-0.91c-0.18-0.22-0.8,0.01-1.11,0.18c-0.6,0.32-0.94,0.87-1.13,1.3
					c-0.05,0.12,0.04,0.25,0.16,0.24C13.5,10.95,14.37,10.82,14.85,10.17z"/>
			</g>
		</g>
	</g>
</g>
<g id="Cropmarks">
	<g id="Back_Side_1_">
		<line class="st4" x1="302.3" y1="-138.46" x2="302.3" y2="-102.46"/>
		<line class="st4" x1="248.3" y1="-84.46" x2="284.3" y2="-84.46"/>
		<line class="st4" x1="248.3" y1="347.54" x2="284.3" y2="347.54"/>
		<line class="st4" x1="302.3" y1="401.54" x2="302.3" y2="365.54"/>
		<line class="st4" x1="590.3" y1="-138.46" x2="590.3" y2="-102.46"/>
		<line class="st4" x1="644.3" y1="-84.46" x2="608.3" y2="-84.46"/>
		<line class="st4" x1="644.3" y1="347.54" x2="608.3" y2="347.54"/>
		<line class="st4" x1="590.3" y1="401.54" x2="590.3" y2="365.54"/>
	</g>
	<g id="Front_Side_1_">
		<line class="st4" x1="-149.49" y1="-138.46" x2="-149.49" y2="-102.46"/>
		<line class="st4" x1="-203.49" y1="-84.46" x2="-167.49" y2="-84.46"/>
		<line class="st4" x1="-203.49" y1="347.54" x2="-167.49" y2="347.54"/>
		<line class="st4" x1="-149.49" y1="401.54" x2="-149.49" y2="365.54"/>
		<line class="st4" x1="138.51" y1="-138.46" x2="138.51" y2="-102.46"/>
		<line class="st4" x1="192.51" y1="-84.46" x2="156.51" y2="-84.46"/>
		<line class="st4" x1="192.51" y1="347.54" x2="156.51" y2="347.54"/>
		<line class="st4" x1="138.51" y1="401.54" x2="138.51" y2="365.54"/>
	</g>
</g>
</svg>
